G04 #@! TF.GenerationSoftware,KiCad,Pcbnew,8.0.2-1*
G04 #@! TF.CreationDate,2024-05-23T19:59:26+01:00*
G04 #@! TF.ProjectId,hexpansion,68657870-616e-4736-996f-6e2e6b696361,rev?*
G04 #@! TF.SameCoordinates,Original*
G04 #@! TF.FileFunction,Copper,L2,Bot*
G04 #@! TF.FilePolarity,Positive*
%FSLAX46Y46*%
G04 Gerber Fmt 4.6, Leading zero omitted, Abs format (unit mm)*
G04 Created by KiCad (PCBNEW 8.0.2-1) date 2024-05-23 19:59:26*
%MOMM*%
%LPD*%
G01*
G04 APERTURE LIST*
G04 Aperture macros list*
%AMRoundRect*
0 Rectangle with rounded corners*
0 $1 Rounding radius*
0 $2 $3 $4 $5 $6 $7 $8 $9 X,Y pos of 4 corners*
0 Add a 4 corners polygon primitive as box body*
4,1,4,$2,$3,$4,$5,$6,$7,$8,$9,$2,$3,0*
0 Add four circle primitives for the rounded corners*
1,1,$1+$1,$2,$3*
1,1,$1+$1,$4,$5*
1,1,$1+$1,$6,$7*
1,1,$1+$1,$8,$9*
0 Add four rect primitives between the rounded corners*
20,1,$1+$1,$2,$3,$4,$5,0*
20,1,$1+$1,$4,$5,$6,$7,0*
20,1,$1+$1,$6,$7,$8,$9,0*
20,1,$1+$1,$8,$9,$2,$3,0*%
%AMHorizOval*
0 Thick line with rounded ends*
0 $1 width*
0 $2 $3 position (X,Y) of the first rounded end (center of the circle)*
0 $4 $5 position (X,Y) of the second rounded end (center of the circle)*
0 Add line between two ends*
20,1,$1,$2,$3,$4,$5,0*
0 Add two circle primitives to create the rounded ends*
1,1,$1,$2,$3*
1,1,$1,$4,$5*%
%AMRotRect*
0 Rectangle, with rotation*
0 The origin of the aperture is its center*
0 $1 length*
0 $2 width*
0 $3 Rotation angle, in degrees counterclockwise*
0 Add horizontal line*
21,1,$1,$2,0,0,$3*%
%AMFreePoly0*
4,1,19,0.500000,-0.750000,0.000000,-0.750000,0.000000,-0.744911,-0.071157,-0.744911,-0.207708,-0.704816,-0.327430,-0.627875,-0.420627,-0.520320,-0.479746,-0.390866,-0.500000,-0.250000,-0.500000,0.250000,-0.479746,0.390866,-0.420627,0.520320,-0.327430,0.627875,-0.207708,0.704816,-0.071157,0.744911,0.000000,0.744911,0.000000,0.750000,0.500000,0.750000,0.500000,-0.750000,0.500000,-0.750000,
$1*%
%AMFreePoly1*
4,1,19,0.000000,0.744911,0.071157,0.744911,0.207708,0.704816,0.327430,0.627875,0.420627,0.520320,0.479746,0.390866,0.500000,0.250000,0.500000,-0.250000,0.479746,-0.390866,0.420627,-0.520320,0.327430,-0.627875,0.207708,-0.704816,0.071157,-0.744911,0.000000,-0.744911,0.000000,-0.750000,-0.500000,-0.750000,-0.500000,0.750000,0.000000,0.750000,0.000000,0.744911,0.000000,0.744911,
$1*%
G04 Aperture macros list end*
G04 #@! TA.AperFunction,EtchedComponent*
%ADD10C,0.000000*%
G04 #@! TD*
G04 #@! TA.AperFunction,ComponentPad*
%ADD11R,2.500000X2.500000*%
G04 #@! TD*
G04 #@! TA.AperFunction,ComponentPad*
%ADD12C,2.500000*%
G04 #@! TD*
G04 #@! TA.AperFunction,SMDPad,CuDef*
%ADD13RoundRect,0.150000X-1.600000X-0.150000X1.600000X-0.150000X1.600000X0.150000X-1.600000X0.150000X0*%
G04 #@! TD*
G04 #@! TA.AperFunction,SMDPad,CuDef*
%ADD14RoundRect,0.150000X-1.200000X-0.150000X1.200000X-0.150000X1.200000X0.150000X-1.200000X0.150000X0*%
G04 #@! TD*
G04 #@! TA.AperFunction,ComponentPad*
%ADD15RoundRect,0.250000X1.000000X-0.600000X1.000000X0.600000X-1.000000X0.600000X-1.000000X-0.600000X0*%
G04 #@! TD*
G04 #@! TA.AperFunction,ComponentPad*
%ADD16O,2.500000X1.700000*%
G04 #@! TD*
G04 #@! TA.AperFunction,ComponentPad*
%ADD17R,1.700000X1.700000*%
G04 #@! TD*
G04 #@! TA.AperFunction,ComponentPad*
%ADD18O,1.700000X1.700000*%
G04 #@! TD*
G04 #@! TA.AperFunction,ComponentPad*
%ADD19RoundRect,0.250000X-1.019615X-0.566025X0.019615X-1.166025X1.019615X0.566025X-0.019615X1.166025X0*%
G04 #@! TD*
G04 #@! TA.AperFunction,ComponentPad*
%ADD20HorizOval,1.700000X-0.200000X-0.346410X0.200000X0.346410X0*%
G04 #@! TD*
G04 #@! TA.AperFunction,ComponentPad*
%ADD21C,0.700000*%
G04 #@! TD*
G04 #@! TA.AperFunction,ComponentPad*
%ADD22C,4.400000*%
G04 #@! TD*
G04 #@! TA.AperFunction,ComponentPad*
%ADD23RotRect,2.000000X2.000000X30.000000*%
G04 #@! TD*
G04 #@! TA.AperFunction,ComponentPad*
%ADD24C,2.000000*%
G04 #@! TD*
G04 #@! TA.AperFunction,SMDPad,CuDef*
%ADD25FreePoly0,90.000000*%
G04 #@! TD*
G04 #@! TA.AperFunction,SMDPad,CuDef*
%ADD26FreePoly1,90.000000*%
G04 #@! TD*
G04 #@! TA.AperFunction,ViaPad*
%ADD27C,3.000000*%
G04 #@! TD*
G04 #@! TA.AperFunction,Conductor*
%ADD28C,0.500000*%
G04 #@! TD*
G04 #@! TA.AperFunction,Conductor*
%ADD29C,1.000000*%
G04 #@! TD*
G04 APERTURE END LIST*
D10*
G04 #@! TA.AperFunction,EtchedComponent*
G36*
X111000000Y-96050000D02*
G01*
X110400000Y-96050000D01*
X110400000Y-95550000D01*
X111000000Y-95550000D01*
X111000000Y-96050000D01*
G37*
G04 #@! TD.AperFunction*
D11*
X119347349Y-105600000D03*
D12*
X122847349Y-105600000D03*
D13*
X100500000Y-103400000D03*
D14*
X100900000Y-102600000D03*
X100900000Y-101800000D03*
X100900000Y-101000000D03*
X100900000Y-100200000D03*
X100900000Y-99400000D03*
X100900000Y-98600000D03*
X100900000Y-97800000D03*
D13*
X100500000Y-97000000D03*
X100500000Y-96200000D03*
D15*
X128475000Y-101150000D03*
D16*
X128475000Y-98650000D03*
D17*
X130000000Y-94100000D03*
D18*
X130000000Y-91560000D03*
D19*
X121097437Y-87295337D03*
D20*
X123262501Y-88545337D03*
X125427564Y-89795337D03*
D21*
X110850000Y-87500000D03*
X111333274Y-86333274D03*
X111333274Y-88666726D03*
X112500000Y-85850000D03*
D22*
X112500000Y-87500000D03*
D21*
X112500000Y-89150000D03*
X113666726Y-86333274D03*
X113666726Y-88666726D03*
X114150000Y-87500000D03*
D23*
X123600000Y-112500000D03*
D24*
X121400295Y-113770000D03*
X125799705Y-111230000D03*
D21*
X110850000Y-112500000D03*
X111333274Y-111333274D03*
X111333274Y-113666726D03*
X112500000Y-110850000D03*
D22*
X112500000Y-112500000D03*
D21*
X112500000Y-114150000D03*
X113666726Y-111333274D03*
X113666726Y-113666726D03*
X114150000Y-112500000D03*
D25*
X110700000Y-96450000D03*
D26*
X110700000Y-95150000D03*
D27*
X122400000Y-98200000D03*
X122300000Y-94000000D03*
D28*
X112500000Y-87500000D02*
X112500000Y-95700000D01*
X122300000Y-94000000D02*
X122300000Y-91300000D01*
X122300000Y-91300000D02*
X123262501Y-90337499D01*
X123262501Y-90337499D02*
X123262501Y-88545337D01*
D29*
X122847349Y-105600000D02*
X122847349Y-98647349D01*
X122847349Y-98647349D02*
X122400000Y-98200000D01*
X115500000Y-107900000D02*
X115500000Y-105600000D01*
X115500000Y-105600000D02*
X115500000Y-92892774D01*
X119347349Y-105600000D02*
X115500000Y-105600000D01*
X121400295Y-113770000D02*
X121370000Y-113770000D01*
X121370000Y-113770000D02*
X115500000Y-107900000D01*
X115500000Y-92892774D02*
X121097437Y-87295337D01*
D28*
X107850000Y-95150000D02*
X106800000Y-96200000D01*
D29*
X128475000Y-98650000D02*
X125427564Y-95602564D01*
X125427564Y-91600000D02*
X125427564Y-89795337D01*
X125427564Y-95602564D02*
X125427564Y-91600000D01*
D28*
X112500000Y-95700000D02*
X111950000Y-95150000D01*
X122400000Y-98200000D02*
X122850000Y-98650000D01*
X112500000Y-112500000D02*
X112500000Y-95700000D01*
X122850000Y-98650000D02*
X128475000Y-98650000D01*
X125467564Y-91560000D02*
X125427564Y-91600000D01*
X106800000Y-96200000D02*
X100500000Y-96200000D01*
X111950000Y-95150000D02*
X110700000Y-95150000D01*
X130000000Y-91560000D02*
X125467564Y-91560000D01*
X110700000Y-95150000D02*
X107850000Y-95150000D01*
X109650000Y-96450000D02*
X106700000Y-99400000D01*
X110700000Y-96450000D02*
X109650000Y-96450000D01*
X106685000Y-99385000D02*
X100915000Y-99385000D01*
X100915000Y-99385000D02*
X100900000Y-99400000D01*
X106700000Y-99400000D02*
X106685000Y-99385000D01*
D29*
X128475000Y-103825000D02*
X128475000Y-101150000D01*
X123600000Y-112500000D02*
X123600000Y-108700000D01*
X123600000Y-108700000D02*
X128475000Y-103825000D01*
M02*
