M48
; DRILL file {KiCad 8.0.2-1} date 2024-05-23T19:59:32+0100
; FORMAT={-:-/ absolute / metric / decimal}
; #@! TF.CreationDate,2024-05-23T19:59:32+01:00
; #@! TF.GenerationSoftware,Kicad,Pcbnew,8.0.2-1
; #@! TF.FileFunction,Plated,1,2,PTH
FMAT,2
METRIC
; #@! TA.AperFunction,Plated,PTH,ComponentDrill
T1C0.400
; #@! TA.AperFunction,Plated,PTH,ViaDrill
T2C0.600
; #@! TA.AperFunction,Plated,PTH,ComponentDrill
T3C0.600
; #@! TA.AperFunction,Plated,PTH,ComponentDrill
T4C2.200
%
G90
G05
T1
X110.85Y-87.5
X110.85Y-112.5
X111.333Y-86.333
X111.333Y-88.667
X111.333Y-111.333
X111.333Y-113.667
X112.5Y-85.85
X112.5Y-89.15
X112.5Y-110.85
X112.5Y-114.15
X113.667Y-86.333
X113.667Y-88.667
X113.667Y-111.333
X113.667Y-113.667
X114.15Y-87.5
X114.15Y-112.5
T2
X122.3Y-94.0
X122.4Y-98.2
T3
X119.347Y-105.6
X121.097Y-87.295
X121.4Y-113.77
X122.847Y-105.6
X123.263Y-88.545
X123.6Y-112.5
X125.428Y-89.795
X125.8Y-111.23
X128.475Y-98.65
X128.475Y-101.15
X130.0Y-91.56
X130.0Y-94.1
T4
X112.5Y-87.5
X112.5Y-112.5
M30
